<REAPER_PROJECT 0.1 "5.28/x64" 1478883543
  RIPPLE 0
  GROUPOVERRIDE 0 0 0
  AUTOXFADE 1
  ENVATTACH 1
  MIXERUIFLAGS 11 48
  PEAKGAIN 1
  FEEDBACK 0
  PANLAW 1
  PROJOFFS 0 0
  MAXPROJLEN 0 600
  GRID 3199 8 1 8 1 0 0
  TIMEMODE 1 5 -1 30 0
  VIDEO_CONFIG 0 0 256
  PANMODE 3
  CURSOR 0
  ZOOM 100 1358 0
  VZOOMEX 6
  USE_REC_CFG 0
  RECMODE 1
  SMPTESYNC 0 30 100 40 1000 300 0 0 1
  LOOP 0
  LOOPGRAN 0 4
  RECORD_PATH "" ""
  <RECORD_CFG
  >
  <APPLYFX_CFG
  >
  RENDER_FILE ""
  RENDER_PATTERN ""
  RENDER_FMT 0 2 0
  RENDER_1X 0
  RENDER_RANGE 1 0 0 18 1000
  RENDER_RESAMPLE 3 0 1
  RENDER_ADDTOPROJ 0
  RENDER_STEMS 0
  RENDER_DITHER 0
  TIMELOCKMODE 1
  TEMPOENVLOCKMODE 1
  ITEMMIX 0
  DEFPITCHMODE 589824
  TAKELANE 1
  SAMPLERATE 44100 0 0
  <RENDER_CFG
  >
  LOCK 1
  <METRONOME 6 2
    VOL 0.25 0.125
    FREQ 800 1600 1
    BEATLEN 4
    SAMPLES "" ""
    PATTERN 2863311530 2863311529
  >
  GLOBAL_AUTO -1
  TEMPO 100 4 4
  PLAYRATE 1 0 0.25 4
  SELECTION 0 0
  SELECTION2 0 0
  MASTERAUTOMODE 0
  MASTERTRACKHEIGHT 0
  MASTERPEAKCOL 16576
  MASTERMUTESOLO 0
  MASTERTRACKVIEW 0 0.6667 0.5 0.5 0 0 0
  MASTERHWOUT 0 0 1 0 0 0 0 -1
  MASTER_NCH 2 2
  MASTER_VOLUME 1 0 -1 -1 1
  MASTER_FX 1
  MASTER_SEL 0
  <MASTERPLAYSPEEDENV
    ACT 0
    VIS 0 1 1
    LANEHEIGHT 0 0
    ARM 0
    DEFSHAPE 0 -1 -1
  >
  <TEMPOENVEX
    ACT 0
    VIS 1 0 1
    LANEHEIGHT 0 0
    ARM 0
    DEFSHAPE 1 -1 -1
  >
  <PROJBAY
  >
  <TRACK {E13CB887-CF25-4CE5-B68D-46429CA07DE9}
    NAME MT-PowerDrumKit
    PEAKCOL 16576
    BEAT -1
    AUTOMODE 0
    VOLPAN 1 0 -1 -1 1
    MUTESOLO 0 0 0
    IPHASE 0
    ISBUS 0 0
    BUSCOMP 0 0
    SHOWINMIX 1 0.6667 0.5 1 0.5 0 0 0
    FREEMODE 0
    SEL 1
    REC 1 4160 1 0 0 0 0
    VU 2
    TRACKHEIGHT 0 0
    INQ 0 0 0 0.5 100 0 0 100
    NCHAN 2
    FX 1
    TRACKID {E13CB887-CF25-4CE5-B68D-46429CA07DE9}
    PERF 0
    MIDIOUT -1
    MAINSEND 1 0
    <FXCHAIN
      WNDRECT 1979 105 1172 695
      SHOW 0
      LASTSEL 0
      DOCKED 0
      BYPASS 0 0 0
      <VST "VSTi: MT-PowerDrumKit (MANDA AUDIO) (16 out)" MT-PowerDrumKit.dll 0 "" 1297371204
        RFBUTe5e7f4AAAAAEAAAAAEAAAAAAAAAAgAAAAAAAAAEAAAAAAAAAAgAAAAAAAAAEAAAAAAAAAAgAAAAAAAAAEAAAAAAAAAAgAAAAAAAAAAAAQAAAAAAAAACAAAAAAAA
        AAQAAAAAAAAACAAAAAAAAAAQAAAAAAAAACAAAAAAAAAAQAAAAAAAAACAAAAAAAAAbAIAAAEAAAAAABAA
        AQAAAGwCAACamTk/XoNCP5qZOT+UwCY/lMAmPww9Pj+R70I/V5ZAP9h+Mj/YfjI/jSUwP40lMD+NJTA/AAAAPwAAAD8AAAA/PdSuPpxTsT5vEoM+F9kOPx1aRD9kVyI/
        4ZUoP4zalT5O1C4/TtQuPwAAgD8AAIA/AACAPwAAgD8AAIA/AACAPwAAgD8AAIA/AACAPwAAgD8AAIA/AACAPwAAgD8AAAAAAAAAAAAAAAAAAAAAAAAAAAAAAAAAAAAA
        AAAAAAAAAAAAAAAAAAAAAAAAAAAAAAAAAAAAAJnTST8AAAAAAAAAP0jhuj4zMxM/AAAAAAAAAAAAAAAA4XrUPilczz5xPco+AAAAAAAAAAAAAAAAAAAAAAAAAAAAAAAA
        AACAPwAAAAAAAAAAAAAAAAAAAAAAAAAAAAAAAAAAAAAAAAAAAAAAAAAAAAAAAAAAAAAAAAAAAAAAAAAAAAAAAAAAAAAAAAAAAAAAAAAA0D0AAPA9AADgPQAAGD4AACg+
        AAA4PgAAqD4AAEg+AAAwPgAAED4AAGA+AABwPgAAUD4AAIg+AACMPgAAaD4AAIA+AACgPQAAAD4AAAAAAACcPgAAmD4AAJQ+AAAAAAAAWD4AAEA+AAAgPgAAAAAAAAAA
        AAAAAAAAAAAAAAAAAAAAAAAAAAAAAMA9AAAIPgAAAAAAAKA+AAAAAAAAAAAAAAAAAAAAAAAAAAAAAAAAAAAAAAAAAAAAAAAAAAAAAAAAAAAAAAAAAAAAAAAAAACuRwE/
        AADAPAAAAAAAAAAAAAAAAAAAAAAAAAAAAAAAAAAAAAAAAAAAAAAAAAAAAAA=
        AE1ULVBvd2VyRHJ1bUtpdAAQAAAA
      >
      PRESETNAME MT-PowerDrumKit
      FLOATPOS 287 142 961 648
      FXID {B8C5D350-8894-490F-9566-FC10B7E5623E}
      WAK 0
    >
    <ITEM
      POSITION 0
      SNAPOFFS 0
      LENGTH 21.6
      LOOP 1
      ALLTAKES 0
      FADEIN 1 0 0 1 0 0
      FADEOUT 1 0 0 1 0 0
      MUTE 0
      SEL 1
      IGUID {1F417765-E997-4054-801B-5A14B1B95979}
      IID 1
      NAME "MTPDK Composition - mtpdk.mid"
      VOLPAN 1 0 1 -1
      SOFFS 0 0
      PLAYRATE 1 1 0 -1 0 0.0025
      CHANMODE 0
      GUID {4D597553-F899-469E-82F2-80A97FBBB6D1}
      <SOURCE MIDI
        HASDATA 1 480 QN
        POOLEDEVTS {59FE484A-8320-4F2E-A0CE-B4ECEC0DF987}
        <X 0 0
          /wNNVFBESyBDb21wb3NpdGlvbg==
        >
        E 962 90 26 64
        E 118 80 26 40
        E 364 90 26 64
        E 118 80 26 40
        E 122 90 26 64
        E 118 80 26 40
        E 2 90 26 64
        E 118 80 26 40
        E 0 90 24 7f
        E 0 90 2c 7f
        E 58 80 24 40
        E 0 80 2c 40
        E 182 90 2c 3c
        E 58 80 2c 40
        E 182 90 24 64
        E 0 90 2c 64
        E 0 90 26 64
        E 2 90 24 64
        E 56 80 24 40
        E 0 80 2c 40
        E 2 80 24 40
        E 58 80 26 40
        E 122 90 2c 3c
        E 2 90 2c 64
        E 56 80 2c 40
        E 2 80 2c 40
        E 60 90 2c 64
        E 58 80 2c 40
        E 62 90 24 64
        E 0 90 2c 64
        E 58 80 24 40
        E 0 80 2c 40
        E 64 90 2c 3c
        E 58 80 2c 40
        E 60 90 2c 3c
        E 58 80 2c 40
        E 182 90 26 64
        E 0 90 2c 64
        E 0 90 24 64
        E 58 80 2c 40
        E 0 80 24 40
        E 60 80 26 40
        E 122 90 2c 3c
        E 58 80 2c 40
        E 60 90 2c 3c
        E 58 80 2c 40
        E 64 90 24 64
        E 0 90 2c 64
        E 58 80 24 40
        E 0 80 2c 40
        E 182 90 2c 3c
        E 58 80 2c 40
        E 182 90 24 64
        E 0 90 2c 64
        E 0 90 26 64
        E 2 90 24 64
        E 56 80 24 40
        E 0 80 2c 40
        E 2 80 24 40
        E 58 80 26 40
        E 122 90 2c 3c
        E 2 90 2c 64
        E 56 80 2c 40
        E 2 80 2c 40
        E 60 90 2c 64
        E 58 80 2c 40
        E 62 90 24 64
        E 0 90 2c 64
        E 58 80 24 40
        E 0 80 2c 40
        E 180 90 2c 3c
        E 58 80 2c 40
        E 62 90 2c 3c
        E 58 80 2c 40
        E 64 90 26 64
        E 0 90 2c 64
        E 0 90 24 64
        E 58 80 2c 40
        E 0 80 24 40
        E 60 80 26 40
        E 2 90 2c 3c
        E 58 80 2c 40
        E 60 90 2c 3c
        E 58 80 2c 40
        E 182 90 24 64
        E 0 90 2c 64
        E 58 80 24 40
        E 0 80 2c 40
        E 182 90 2c 3c
        E 58 80 2c 40
        E 62 90 2c 3c
        E 58 80 2c 40
        E 62 90 24 64
        E 0 90 2c 64
        E 0 90 26 64
        E 2 90 24 64
        E 56 80 24 40
        E 0 80 2c 40
        E 2 80 24 40
        E 58 80 26 40
        E 122 90 2c 3c
        E 2 90 2c 64
        E 56 80 2c 40
        E 2 80 2c 40
        E 60 90 2c 64
        E 58 80 2c 40
        E 62 90 24 64
        E 0 90 2c 64
        E 58 80 24 40
        E 0 80 2c 40
        E 180 90 2c 3c
        E 58 80 2c 40
        E 62 90 2c 3c
        E 58 80 2c 40
        E 64 90 26 64
        E 0 90 2c 64
        E 0 90 24 64
        E 58 80 2c 40
        E 0 80 24 40
        E 60 80 26 40
        E 2 90 2c 3c
        E 58 80 2c 40
        E 60 90 2c 3c
        E 58 80 2c 40
        E 64 90 2c 3c
        E 58 80 2c 40
        E 64 90 24 64
        E 0 90 2c 64
        E 58 80 24 40
        E 0 80 2c 40
        E 182 90 2c 3c
        E 58 80 2c 40
        E 182 90 24 64
        E 0 90 2c 64
        E 0 90 26 64
        E 2 90 24 64
        E 56 80 24 40
        E 0 80 2c 40
        E 2 80 24 40
        E 58 80 26 40
        E 122 90 2c 3c
        E 2 90 2c 64
        E 56 80 2c 40
        E 2 80 2c 40
        E 60 90 2c 64
        E 58 80 2c 40
        E 62 90 24 64
        E 0 90 2c 64
        E 58 80 24 40
        E 0 80 2c 40
        E 180 90 2c 3c
        E 58 80 2c 40
        E 184 90 26 64
        E 0 90 2c 64
        E 0 90 24 64
        E 58 80 2c 40
        E 0 80 24 40
        E 60 80 26 40
        E 2 90 2c 3c
        E 58 80 2c 40
        E 60 90 2c 3c
        E 58 80 2c 40
        E 64 90 2c 3c
        E 58 80 2c 40
        E 60 90 24 64
        E 0 90 2c 64
        E 58 80 24 40
        E 0 80 2c 40
        E 182 90 2c 3c
        E 58 80 2c 40
        E 182 90 24 64
        E 0 90 2c 64
        E 0 90 26 64
        E 2 90 24 64
        E 56 80 24 40
        E 0 80 2c 40
        E 2 80 24 40
        E 58 80 26 40
        E 122 90 2c 3c
        E 2 90 2c 64
        E 56 80 2c 40
        E 2 80 2c 40
        E 60 90 2c 64
        E 58 80 2c 40
        E 62 90 24 64
        E 0 90 2c 64
        E 58 80 24 40
        E 0 80 2c 40
        E 180 90 2c 3c
        E 58 80 2c 40
        E 64 90 2c 3c
        E 58 80 2c 40
        E 62 90 26 64
        E 0 90 2c 64
        E 0 90 24 64
        E 58 80 2c 40
        E 0 80 24 40
        E 60 80 26 40
        E 2 90 2c 3c
        E 58 80 2c 40
        E 60 90 2c 3c
        E 58 80 2c 40
        E 64 90 2c 3c
        E 58 80 2c 40
        E 62 90 24 64
        E 0 90 2c 64
        E 58 80 24 40
        E 0 80 2c 40
        E 182 90 2c 3c
        E 58 80 2c 40
        E 182 90 24 64
        E 0 90 2c 64
        E 0 90 26 64
        E 2 90 24 64
        E 56 80 24 40
        E 0 80 2c 40
        E 2 80 24 40
        E 58 80 26 40
        E 122 90 2c 3c
        E 2 90 2c 64
        E 56 80 2c 40
        E 2 80 2c 40
        E 60 90 2c 64
        E 58 80 2c 40
        E 62 90 24 64
        E 0 90 2c 64
        E 58 80 24 40
        E 0 80 2c 40
        E 180 90 2c 3c
        E 58 80 2c 40
        E 64 90 2c 3c
        E 58 80 2c 40
        E 62 90 26 64
        E 0 90 2c 64
        E 0 90 24 64
        E 58 80 2c 40
        E 0 80 24 40
        E 60 80 26 40
        E 2 90 2c 3c
        E 58 80 2c 40
        E 60 90 2c 3c
        E 58 80 2c 40
        E 64 90 2c 3c
        E 58 80 2c 40
        E 64 90 24 64
        E 0 90 2c 64
        E 58 80 24 40
        E 0 80 2c 40
        E 182 90 2c 3c
        E 58 80 2c 40
        E 60 90 2c 3c
        E 58 80 2c 40
        E 64 90 24 64
        E 0 90 2c 64
        E 0 90 26 64
        E 2 90 24 64
        E 56 80 24 40
        E 0 80 2c 40
        E 2 80 24 40
        E 58 80 26 40
        E 122 90 2c 3c
        E 2 90 2c 64
        E 56 80 2c 40
        E 2 80 2c 40
        E 60 90 2c 64
        E 58 80 2c 40
        E 62 90 24 64
        E 0 90 2c 64
        E 58 80 24 40
        E 0 80 2c 40
        E 180 90 2c 3c
        E 58 80 2c 40
        E 64 90 2c 3c
        E 58 80 2c 40
        E 62 90 26 64
        E 0 90 2c 64
        E 0 90 24 64
        E 58 80 2c 40
        E 0 80 24 40
        E 60 80 26 40
        E 2 90 2c 3c
        E 58 80 2c 40
        E 60 90 2c 3c
        E 58 80 2c 40
        E 64 90 2c 3c
        E 58 80 2c 40
        E 60 90 24 64
        E 0 90 2c 64
        E 58 80 24 40
        E 0 80 2c 40
        E 182 90 2c 3c
        E 58 80 2c 40
        E 60 90 2c 3c
        E 58 80 2c 40
        E 64 90 24 64
        E 0 90 2c 64
        E 0 90 26 64
        E 2 90 24 64
        E 56 80 24 40
        E 0 80 2c 40
        E 2 80 24 40
        E 58 80 26 40
        E 122 90 2c 3c
        E 2 90 2c 64
        E 56 80 2c 40
        E 2 80 2c 40
        E 60 90 2c 64
        E 58 80 2c 40
        E 62 90 24 64
        E 0 90 2c 64
        E 58 80 24 40
        E 0 80 2c 40
        E 184 90 26 3c
        E 58 80 26 40
        E 180 90 26 64
        E 0 90 24 64
        E 58 80 26 40
        E 0 80 24 40
        E 62 90 26 3c
        E 58 80 26 40
        E 60 90 26 3c
        E 58 80 26 40
        E 64 90 26 3c
        E 58 80 26 40
        E 62 b0 7b 00
        GUID {0DE508D9-81D5-4946-A0C1-545FDDDB61A2}
        IGNTEMPO 0 120 4 4
        SRCCOLOR 69
        VELLANE -1 100 0
        CFGEDITVIEW 11587.755102 0.124515 66 12 0 -1 0 0 0 0.5
        KEYSNAP 0
        TRACKSEL 0
        EVTFILTER 0 -1 -1 -1 -1 0 0 0 0 -1 -1 -1 -1 0 -1 0 -1 -1
        CFGEDIT 1 1 0 1 0 0 1 1 1 1 1 0.125 251 8 1856 996 0 0 0 0 0 0 0 0 0 0.5 0 0 1 64
      >
    >
  >
>
